<svg width="87" height="87" viewBox="0 0 87 87" fill="none" xmlns="http://www.w3.org/2000/svg">
<path d="M58 18.125C54.6677 18.125 51.368 18.7813 48.2894 20.0566C45.2108 21.3318 42.4135 23.2009 40.0572 25.5572C37.7009 27.9135 35.8318 30.7108 34.5566 33.7894C33.2813 36.868 32.625 40.1677 32.625 43.5C32.625 46.8323 33.2813 50.132 34.5566 53.2106C35.8318 56.2892 37.7009 59.0865 40.0572 61.4428C42.4135 63.7991 45.2108 65.6682 48.2894 66.9434C51.368 68.2187 54.6677 68.875 58 68.875C61.3323 68.875 64.632 68.2187 67.7106 66.9434C70.7892 65.6682 73.5865 63.7991 75.9428 61.4428C78.2991 59.0865 80.1682 56.2892 81.4434 53.2106C82.7187 50.132 83.375 46.8323 83.375 43.5C83.375 40.1677 82.7187 36.868 81.4434 33.7894C80.1682 30.7108 78.2991 27.9135 75.9428 25.5572C73.5865 23.2009 70.7892 21.3318 67.7106 20.0566C64.632 18.7813 61.3323 18.125 58 18.125Z" fill="#FF9800"/>
<path d="M29 18.125C25.6677 18.125 22.368 18.7813 19.2894 20.0566C16.2108 21.3318 13.4135 23.2009 11.0572 25.5572C8.70088 27.9135 6.83177 30.7108 5.55656 33.7894C4.28134 36.868 3.625 40.1677 3.625 43.5C3.625 46.8323 4.28134 50.132 5.55656 53.2106C6.83177 56.2892 8.70088 59.0865 11.0572 61.4428C13.4135 63.7991 16.2108 65.6682 19.2894 66.9434C22.368 68.2187 25.6677 68.875 29 68.875C32.3323 68.875 35.632 68.2187 38.7106 66.9434C41.7892 65.6682 44.5865 63.7991 46.9428 61.4428C49.2991 59.0865 51.1682 56.2892 52.4434 53.2106C53.7187 50.132 54.375 46.8323 54.375 43.5C54.375 40.1677 53.7187 36.868 52.4434 33.7894C51.1682 30.7108 49.2991 27.9135 46.9428 25.5572C44.5865 23.2009 41.7892 21.3318 38.7106 20.0566C35.632 18.7813 32.3323 18.125 29 18.125Z" fill="#D50000"/>
<path d="M32.625 43.4999C32.625 52.1183 36.9315 59.7218 43.5 64.3074C50.0685 59.7218 54.375 52.1183 54.375 43.4999C54.375 34.8814 50.0685 27.278 43.5 22.6924C36.9315 27.278 32.625 34.8814 32.625 43.4999Z" fill="#FF3D00"/>
</svg>
