<svg width="151" height="42" viewBox="0 0 151 42" fill="none" xmlns="http://www.w3.org/2000/svg">
<path fill-rule="evenodd" clip-rule="evenodd" d="M40.6897 7.99086e-07V0.0183414C40.6711 0.0183414 34.7916 6.99639e-07 33.2237 5.52052C31.7865 10.5825 27.7362 24.5581 27.6242 24.9432H26.5043C26.5043 24.9432 22.3607 10.6559 20.9048 5.50218C19.337 -0.01834 13.4388 7.99086e-07 13.4388 7.99086e-07H0V42H13.4388V17.0568H13.9988H14.5587L22.398 42H31.7305L39.5698 17.0751H40.6897V42H54.1286V7.99086e-07H40.6897Z" fill="#4DB45E"/>
<path fill-rule="evenodd" clip-rule="evenodd" d="M89.7786 0C89.7786 0 85.8403 0.348472 83.9924 4.40175L74.4733 24.9432H73.3534V0H59.9146V42H72.6068C72.6068 42 76.7317 41.6332 78.5796 37.5983L87.9121 17.0568H89.032V42H102.471V0H89.7786Z" fill="#4DB45E"/>
<path fill-rule="evenodd" clip-rule="evenodd" d="M108.444 19.0742V42H121.883V28.6113H136.441C142.787 28.6113 148.163 24.6314 150.16 19.0742H108.444Z" fill="#4DB45E"/>
<path fill-rule="evenodd" clip-rule="evenodd" d="M136.441 0H106.559C108.052 7.99651 114.155 14.4157 122.051 16.5065C123.842 16.9834 125.728 17.2402 127.669 17.2402H150.701C150.907 16.2865 151 15.3144 151 14.3057C151 6.40087 144.486 0 136.441 0Z" fill="url(#paint0_linear_154_279)"/>
<defs>
<linearGradient id="paint0_linear_154_279" x1="106.562" y1="8.62009" x2="151" y2="8.62009" gradientUnits="userSpaceOnUse">
<stop offset="0.3" stop-color="#00B4E6"/>
<stop offset="1" stop-color="#088CCB"/>
</linearGradient>
</defs>
</svg>
